<svg width="53" height="52" viewBox="0 0 53 52" fill="none" xmlns="http://www.w3.org/2000/svg">
<g filter="url(#filter0_d_281_4065)">
<rect x="2.33337" y="1" width="48" height="48" rx="10" fill="white"/>
<rect x="2.83337" y="1.5" width="47" height="47" rx="9.5" stroke="#EAECF0"/>
<path d="M30.3334 23H32.3334M30.3334 27H32.3334M20.5033 28.0001C20.7094 27.4141 21.0924 26.9065 21.5993 26.5475C22.1062 26.1884 22.7121 25.9956 23.3333 25.9956C23.9545 25.9956 24.5604 26.1884 25.0673 26.5475C25.5742 26.9065 25.9572 27.4141 26.1633 28.0001M25.3334 24C25.3334 25.1046 24.4379 26 23.3334 26C22.2288 26 21.3334 25.1046 21.3334 24C21.3334 22.8954 22.2288 22 23.3334 22C24.4379 22 25.3334 22.8954 25.3334 24ZM18.3334 18H34.3334C35.4379 18 36.3334 18.8954 36.3334 20V30C36.3334 31.1046 35.4379 32 34.3334 32H18.3334C17.2288 32 16.3334 31.1046 16.3334 30V20C16.3334 18.8954 17.2288 18 18.3334 18Z" stroke="#344054" stroke-width="1.6" stroke-linecap="round" stroke-linejoin="round"/>
</g>
<defs>
<filter id="filter0_d_281_4065" x="0.333374" y="0" width="52" height="52" filterUnits="userSpaceOnUse" color-interpolation-filters="sRGB">
<feFlood flood-opacity="0" result="BackgroundImageFix"/>
<feColorMatrix in="SourceAlpha" type="matrix" values="0 0 0 0 0 0 0 0 0 0 0 0 0 0 0 0 0 0 127 0" result="hardAlpha"/>
<feOffset dy="1"/>
<feGaussianBlur stdDeviation="1"/>
<feColorMatrix type="matrix" values="0 0 0 0 0.0627451 0 0 0 0 0.0941176 0 0 0 0 0.156863 0 0 0 0.05 0"/>
<feBlend mode="normal" in2="BackgroundImageFix" result="effect1_dropShadow_281_4065"/>
<feBlend mode="normal" in="SourceGraphic" in2="effect1_dropShadow_281_4065" result="shape"/>
</filter>
</defs>
</svg>
