<svg width="52" height="52" viewBox="0 0 52 52" fill="none" xmlns="http://www.w3.org/2000/svg">
<g filter="url(#filter0_d_281_4725)">
<rect x="2" y="1" width="48" height="48" rx="10" fill="white"/>
<rect x="2.5" y="1.5" width="47" height="47" rx="9.5" stroke="#EAECF0"/>
<path d="M33.43 25.935C33.787 24.968 34 23.98 34 23C34 20.8783 33.1571 18.8434 31.6569 17.3431C30.1566 15.8429 28.1217 15 26 15C23.8783 15 21.8434 15.8429 20.3431 17.3431C18.8429 18.8434 18 20.8783 18 23C18 27.993 23.539 33.193 25.399 34.799C25.5723 34.9293 25.7832 34.9998 26 34.9998C26.2168 34.9998 26.4277 34.9293 26.601 34.799C26.8761 34.5609 27.1471 34.3182 27.414 34.071M30 31L32 33L36 29M29 23C29 24.6569 27.6569 26 26 26C24.3431 26 23 24.6569 23 23C23 21.3431 24.3431 20 26 20C27.6569 20 29 21.3431 29 23Z" stroke="#344054" stroke-width="1.6" stroke-linecap="round" stroke-linejoin="round"/>
</g>
<defs>
<filter id="filter0_d_281_4725" x="0" y="0" width="52" height="52" filterUnits="userSpaceOnUse" color-interpolation-filters="sRGB">
<feFlood flood-opacity="0" result="BackgroundImageFix"/>
<feColorMatrix in="SourceAlpha" type="matrix" values="0 0 0 0 0 0 0 0 0 0 0 0 0 0 0 0 0 0 127 0" result="hardAlpha"/>
<feOffset dy="1"/>
<feGaussianBlur stdDeviation="1"/>
<feColorMatrix type="matrix" values="0 0 0 0 0.0627451 0 0 0 0 0.0941176 0 0 0 0 0.156863 0 0 0 0.05 0"/>
<feBlend mode="normal" in2="BackgroundImageFix" result="effect1_dropShadow_281_4725"/>
<feBlend mode="normal" in="SourceGraphic" in2="effect1_dropShadow_281_4725" result="shape"/>
</filter>
</defs>
</svg>
