<svg width="31" height="19" viewBox="0 0 31 19" fill="none" xmlns="http://www.w3.org/2000/svg">
<rect width="31" height="19" rx="2" fill="#4EA302" fill-opacity="0.7"/>
<rect x="3" y="6.5" width="1.2" height="6" rx="0.6" fill="white"/>
<g clip-path="url(#clip0_225_916)">
<path d="M15.5 5V15M18 6.5H14.25C13.7859 6.5 13.3408 6.68437 13.0126 7.01256C12.6844 7.34075 12.5 7.78587 12.5 8.25C12.5 8.71413 12.6844 9.15925 13.0126 9.48744C13.3408 9.81563 13.7859 10 14.25 10H16.75C17.2141 10 17.6592 10.1844 17.9874 10.5126C18.3156 10.8408 18.5 11.2859 18.5 11.75C18.5 12.2141 18.3156 12.6592 17.9874 12.9874C17.6592 13.3156 17.2141 13.5 16.75 13.5H12.5" stroke="white" stroke-width="1.2" stroke-linecap="round" stroke-linejoin="round"/>
</g>
<rect x="26.8" y="6.5" width="1.2" height="6" rx="0.6" fill="white"/>
<defs>
<clipPath id="clip0_225_916">
<rect width="12" height="12" fill="white" transform="translate(9.5 3.5)"/>
</clipPath>
</defs>
</svg>
