<svg width="50" height="50" viewBox="0 0 50 50" fill="none" xmlns="http://www.w3.org/2000/svg">
<circle cx="25" cy="25" r="24.5" fill="white" stroke="#FEC400"/>
<path fill-rule="evenodd" clip-rule="evenodd" d="M19.9054 16C18.2468 16 16.7469 16.4145 15.6583 17.4254C14.5593 18.4459 14 19.9613 14 21.9054V29.0946C14 31.0388 14.5593 32.5541 15.6583 33.5746C16.7469 34.5855 18.2468 35 19.9054 35H30.1757C31.8343 35 33.3342 34.5855 34.4227 33.5746C35.5218 32.5541 36.0811 31.0388 36.0811 29.0946V21.9054C36.0811 19.9613 35.5218 18.4459 34.4227 17.4254C33.3342 16.4145 31.8343 16 30.1757 16H19.9054ZM32.4644 21.764C32.801 21.5039 32.863 21.0201 32.6028 20.6835C32.3428 20.3469 31.8591 20.2849 31.5224 20.545L25.8254 24.947C25.3631 25.3044 24.7178 25.3044 24.2555 24.947L18.5586 20.545C18.2219 20.2849 17.7382 20.3469 17.4781 20.6835C17.218 21.0201 17.28 21.5039 17.6166 21.764L23.3136 26.1661C24.3308 26.952 25.7502 26.952 26.7674 26.1661L32.4644 21.764Z" fill="#FEC400"/>
</svg>
